PathFileType	4	(X/Y/Z)	SUBJ89_1_walk_RCNL2025.trc
DataRate	CameraRate	NumFrames	NumMarkers	Units	OrigDataRate	OrigDataStartFrame	OrigNumFrames
100	100	11	25	mm	100	122	243
Frame#	Time	R_Shoulder			L_Shoulder			C7			J_Notch			R_Elbow			L_Elbow			R_Wrist			L_Wrist			R_Asis			L_Asis			Sacral			Thoracic			Sternum			R_Thigh_Lateral			R_Knee_Lateral			R_Shank_Lateral			R_Ankle_Lateral			R_Heel			R_Toe			L_Thigh_Lateral			L_Knee_Lateral			L_Shank_Lateral			L_Ankle_Lateral			L_Heel			L_Toe		
		X1	Y1	Z1	X2	Y2	Z2	X3	Y3	Z3	X4	Y4	Z4	X5	Y5	Z5	X6	Y6	Z6	X7	Y7	Z7	X8	Y8	Z8	X9	Y9	Z9	X10	Y10	Z10	X11	Y11	Z11	X12	Y12	Z12	X13	Y13	Z13	X14	Y14	Z14	X15	Y15	Z15	X16	Y16	Z16	X17	Y17	Z17	X18	Y18	Z18	X19	Y19	Z19	X20	Y20	Z20	X21	Y21	Z21	X22	Y22	Z22	X23	Y23	Z23	X24	Y24	Z24	X25	Y25	Z25
122	1.21000000	-252.392776	1423.601562	413.704895	-253.367142	1429.720215	-0.662728	-325.369659	1513.306885	208.412048	-202.406265	1391.611816	208.813797	-373.681458	1107.308350	458.777008	-280.499329	1087.332031	-42.017124	-299.585251	846.274719	461.980881	-152.934052	851.445618	-32.441962	-222.508972	996.445312	330.035858	-212.898361	996.086792	92.198822	-386.091705	1052.378296	219.396652	-407.087616	1337.930298	205.473709	-171.328598	1242.953613	200.823700	-159.396530	629.937805	405.414581	-132.782562	518.172791	353.129730	-220.679443	313.271301	391.420197	-295.698853	120.156364	316.590881	-329.520447	120.090042	267.834137	-160.247070	49.834255	309.747070	-280.532928	564.471130	23.120605	-297.421021	482.101318	102.167992	-364.243103	255.044113	64.290070	-398.574341	63.711536	144.089676	-436.210480	73.022049	191.108566	-243.620438	34.054428	155.475571
123	1.22000000	-239.738892	1421.657227	413.866821	-240.007721	1428.770996	-0.296825	-312.202362	1511.920898	208.769440	-189.415848	1390.092773	208.980621	-362.353577	1105.849487	458.573151	-261.001038	1086.489258	-44.360252	-287.909805	844.874634	462.529343	-126.761227	854.435364	-30.531815	-208.864182	994.986267	329.425476	-199.969345	994.388123	91.639511	-372.758606	1050.960205	219.046738	-394.029846	1336.523438	205.276718	-158.320251	1241.431152	200.705383	-142.322968	630.158936	404.917908	-114.715652	518.109741	352.566772	-192.201340	308.701233	391.427124	-255.910889	111.599556	317.172607	-289.888611	109.550789	268.449677	-116.582474	49.358669	310.280334	-273.245483	563.491516	22.818302	-292.137207	481.179626	101.868729	-361.942841	254.847427	64.004402	-398.303772	63.901756	144.124557	-435.846588	73.423843	191.203201	-243.534668	34.033928	155.397263
124	1.23000000	-227.061783	1419.393188	414.058716	-226.748352	1427.453369	0.072532	-299.014008	1510.247681	209.166245	-176.394028	1388.267212	209.172867	-350.766296	1104.003418	458.425049	-241.410461	1085.418213	-46.660072	-276.031654	843.077209	463.046188	-100.733974	857.380188	-28.551733	-195.239532	993.119812	328.903442	-187.026688	992.408813	91.155922	-359.365387	1049.309326	218.747482	-380.925110	1334.824585	205.189133	-145.249557	1239.615601	200.629532	-126.000984	629.766602	404.410461	-97.387993	517.489807	351.966858	-163.906433	304.180237	391.443024	-215.647491	103.667679	317.823364	-249.638763	99.637894	269.090179	-72.879440	49.649509	310.782379	-265.549438	562.321045	22.617622	-286.496613	480.143005	101.636040	-359.407379	254.610168	63.787853	-397.936798	64.103622	144.242096	-435.439178	73.867973	191.369110	-243.435303	34.010735	155.341064
125	1.24000000	-214.353516	1416.848145	414.287231	-213.563538	1425.803467	0.445328	-285.793427	1508.312866	209.602829	-163.324295	1386.172974	209.395081	-338.916809	1101.800293	458.321564	-221.751373	1084.156616	-48.874676	-263.970367	840.905670	463.535019	-74.909184	860.282593	-26.515564	-181.614594	990.875854	328.467987	-174.036331	990.191956	90.729088	-345.898956	1047.451782	218.510773	-367.757843	1332.855957	205.212723	-132.093933	1237.546021	200.596954	-110.503990	628.731812	403.918945	-80.798973	516.345459	351.330750	-135.805496	299.811646	391.482452	-174.994568	96.545647	318.553162	-208.854614	90.555038	269.762146	-29.237455	50.804192	311.176361	-257.549469	560.969971	22.494099	-280.540253	479.003052	101.458664	-356.661896	254.347610	63.653652	-397.487762	64.332153	144.459793	-434.978973	74.390602	191.615204	-243.336533	33.976162	155.313232
126	1.25000000	-201.603699	1414.064575	414.562744	-200.422058	1423.864380	0.825373	-272.526794	1506.146729	210.079269	-150.191925	1383.851196	209.651733	-326.805450	1099.276733	458.249542	-202.051071	1082.746582	-50.965927	-251.741615	838.390259	464.002335	-49.364359	863.136566	-24.425806	-167.957611	988.288635	328.113831	-160.971237	987.780640	90.342972	-332.346741	1045.413940	218.351761	-354.512604	1330.646240	205.346100	-118.831406	1235.265015	200.611176	-95.905495	627.033325	403.466461	-64.931793	514.728088	350.659882	-107.935181	295.703400	391.550629	-134.086945	90.399117	319.351654	-167.678833	82.487808	270.465057	14.203252	52.907356	311.393402	-249.363632	559.466064	22.414595	-274.320923	477.781952	101.321075	-353.755707	254.085663	63.614380	-396.985596	64.610840	144.791992	-434.453094	75.025650	191.959183	-243.247925	33.925026	155.314087
127	1.26000000	-188.799713	1411.086426	414.897491	-187.288696	1421.686157	1.218975	-259.198120	1503.784668	210.596954	-136.982513	1381.345093	209.947968	-314.433990	1096.474976	458.195312	-182.339447	1081.233032	-52.900505	-239.357025	835.569672	464.456299	-24.193964	865.924316	-22.277017	-154.231018	985.397827	327.832306	-147.814621	985.216309	89.987320	-318.697815	1043.221191	218.285461	-341.174683	1328.231812	205.584656	-105.444023	1232.817627	200.676636	-82.266548	624.661560	403.068024	-49.751175	512.703003	349.954651	-80.372711	291.958130	391.640717	-93.127937	85.358208	320.185242	-126.326653	75.586967	271.184235	57.238289	56.020409	311.391479	-241.107224	557.853577	22.343349	-267.895599	476.508698	101.208145	-350.752136	253.859421	63.682537	-396.455475	64.969215	145.252853	-433.850250	75.805244	192.422272	-243.170212	33.857845	155.336563
128	1.27000000	-175.925018	1407.959473	415.300537	-174.126450	1419.324707	1.633662	-245.790604	1501.267212	211.159424	-123.680946	1378.699463	210.290237	-301.804779	1093.442505	458.145660	-162.648376	1079.660645	-54.649406	-226.824387	832.490662	464.903183	0.502978	868.614471	-20.061288	-140.396988	982.251221	327.610931	-134.553528	982.540771	89.654884	-304.943359	1040.897949	218.322540	-327.730652	1325.655029	205.921799	-91.920082	1230.248901	200.796539	-69.615219	621.626343	402.728088	-35.203342	510.341766	349.210938	-53.248806	288.655609	391.729706	-52.410065	81.503426	320.999695	-85.093613	69.952591	271.879059	99.582405	60.162380	311.171753	-232.878586	556.187195	22.250298	-261.314453	475.216278	101.109215	-347.713959	253.710587	63.869514	-395.908417	65.440407	145.854599	-433.165680	76.759514	193.022675	-243.098663	33.779465	155.370285
129	1.28000000	-162.957779	1404.730347	415.774628	-160.898529	1416.837769	2.078842	-232.287872	1498.638306	211.771393	-110.272263	1375.960449	210.685806	-288.920074	1090.230347	458.089081	-143.012131	1078.073120	-56.186981	-214.147087	829.204254	465.342804	24.642559	871.170349	-17.774437	-126.423347	978.905823	327.433441	-121.172813	979.797852	89.338272	-291.076477	1038.468140	218.466904	-314.169556	1322.962158	206.349564	-78.254570	1227.602295	200.972855	-57.919384	617.966064	402.439087	-21.215746	507.716248	348.419617	-26.752056	285.829468	391.775452	-12.329483	78.849808	321.721649	-44.367706	65.616425	272.481689	140.865814	65.283424	310.784271	-224.745331	554.523254	22.116608	-254.609085	473.938110	101.021065	-344.685852	253.683533	64.180023	-395.347168	66.058922	146.597549	-432.401123	77.918106	193.765121	-243.029831	33.695648	155.408157
130	1.29000000	-149.872284	1401.444092	416.318329	-147.567978	1414.281860	2.567487	-218.674713	1495.942993	212.437607	-96.742836	1373.173462	211.141617	-275.781036	1086.891357	458.016785	-123.467979	1076.509155	-57.490971	-201.324409	825.761932	465.768143	48.177549	873.567047	-15.425308	-112.288200	975.429016	327.281952	-107.656090	977.032227	89.029190	-277.091553	1035.956787	218.715485	-300.484497	1320.200928	206.858078	-64.448433	1224.918091	201.208145	-47.057980	613.757263	402.181519	-7.695629	504.896210	347.571625	-1.120719	283.449860	391.717468	26.624487	77.325340	322.256439	-4.630826	62.526672	272.897186	180.645828	71.238663	310.318817	-216.730515	552.912109	21.936474	-247.782822	472.702942	100.946861	-341.677399	253.819321	64.602501	-394.775543	66.857460	147.457031	-431.560028	79.313126	194.625748	-242.964172	33.610802	155.449280
131	1.30000000	-136.642197	1398.143799	416.930389	-134.095810	1411.711548	3.116430	-204.938263	1493.225586	213.162643	-83.080650	1370.381226	211.663773	-262.387482	1083.477905	457.923889	-104.056198	1075.001343	-58.543285	-188.353294	822.215515	466.171219	71.101532	875.799683	-13.043218	-97.981895	971.896973	327.139038	-93.988609	974.285645	88.719070	-262.983917	1033.391357	219.058990	-286.672241	1317.418823	207.434906	-50.506657	1222.231567	201.505630	-36.801456	609.123108	401.927582	5.470706	501.948792	346.665314	23.378284	281.421692	391.481628	63.900780	76.757568	322.488800	33.562069	60.543636	272.998962	218.430893	77.768417	309.881317	-208.801331	551.392090	21.715038	-240.803482	471.530731	100.889427	-338.651703	254.147766	65.098953	-394.201111	67.863419	148.375824	-430.643585	80.978958	195.540283	-242.902405	33.528851	155.494980
132	1.31000000	-123.243553	1394.868896	417.611328	-120.441780	1409.178711	3.744992	-191.068466	1490.528076	213.952209	-69.274712	1367.622070	212.257965	-248.737808	1080.038818	457.809448	-84.819763	1073.574707	-59.330105	-175.229454	818.618317	466.549286	93.427608	877.874512	-10.673613	-83.505302	968.391052	326.990601	-80.157791	971.593872	88.401184	-248.750610	1030.802124	219.482559	-272.730011	1314.662964	208.065948	-36.435528	1219.574463	201.867722	-26.812862	604.239014	401.646210	18.417139	498.939087	345.710205	46.480499	279.602539	390.988434	98.922974	76.881752	322.294586	69.619614	59.448967	272.635620	253.714828	84.488503	309.560760	-200.864899	549.984436	21.462818	-233.602936	470.430786	100.844376	-335.524933	254.682617	65.601990	-393.629120	69.097549	149.267334	-429.649078	82.947655	196.405670	-242.840530	33.456215	155.542847
